<?xml version="1.0" encoding="UTF-8"?>
<!-- Do not edit this file with editors other than draw.io -->
<!DOCTYPE svg PUBLIC "-//W3C//DTD SVG 1.1//EN" "http://www.w3.org/Graphics/SVG/1.1/DTD/svg11.dtd">
<svg xmlns="http://www.w3.org/2000/svg" xmlns:xlink="http://www.w3.org/1999/xlink" version="1.1" width="40px" height="40px" viewBox="-0.5 -0.5 40 40" content="&lt;mxfile host=&quot;app.diagrams.net&quot; modified=&quot;2023-07-28T07:25:38.685Z&quot; agent=&quot;Mozilla/5.0 (X11; Linux x86_64; rv:109.0) Gecko/20100101 Firefox/115.0&quot; etag=&quot;N-Z23DyiC9XlKqCSJEaR&quot; version=&quot;21.6.5&quot; type=&quot;github&quot;&gt;&#xA;  &lt;diagram name=&quot;Page-1&quot; id=&quot;xH0QmgjyA1GKlQv8rWNe&quot;&gt;&#xA;    &lt;mxGraphModel dx=&quot;3034&quot; dy=&quot;1595&quot; grid=&quot;1&quot; gridSize=&quot;10&quot; guides=&quot;1&quot; tooltips=&quot;1&quot; connect=&quot;1&quot; arrows=&quot;1&quot; fold=&quot;1&quot; page=&quot;0&quot; pageScale=&quot;1&quot; pageWidth=&quot;850&quot; pageHeight=&quot;1100&quot; math=&quot;0&quot; shadow=&quot;0&quot;&gt;&#xA;      &lt;root&gt;&#xA;        &lt;mxCell id=&quot;0&quot; /&gt;&#xA;        &lt;mxCell id=&quot;1&quot; parent=&quot;0&quot; /&gt;&#xA;        &lt;mxCell id=&quot;ZFwyQ3lew-JSg3-mzmKl-1&quot; value=&quot;&quot; style=&quot;sketch=0;aspect=fixed;pointerEvents=1;shadow=0;dashed=0;html=1;strokeColor=none;labelPosition=center;verticalLabelPosition=bottom;verticalAlign=top;align=center;fillColor=#00188D;shape=mxgraph.mscae.general.video&quot; vertex=&quot;1&quot; parent=&quot;1&quot;&gt;&#xA;          &lt;mxGeometry x=&quot;-1360&quot; y=&quot;-760&quot; width=&quot;39.2&quot; height=&quot;40&quot; as=&quot;geometry&quot; /&gt;&#xA;        &lt;/mxCell&gt;&#xA;      &lt;/root&gt;&#xA;    &lt;/mxGraphModel&gt;&#xA;  &lt;/diagram&gt;&#xA;&lt;/mxfile&gt;&#xA;" resource="https://app.diagrams.net/#HBDHU%2Fdiagram%2Fmain%2Foptimization.drawio.svg"><defs/><g><rect x="0" y="0" width="39.2" height="40" fill="none" stroke="none" pointer-events="all"/><path d="M 0 40 L 0 0 L 1.89 0 L 1.89 1.85 L 5.64 1.85 L 5.64 0 L 33.6 0 L 33.6 1.85 L 37.39 1.85 L 37.39 0 L 39.2 0 L 39.2 40 L 37.39 40 L 37.39 38.15 L 33.6 38.15 L 33.6 40 L 5.64 40 L 5.64 38.15 L 1.89 38.15 L 1.89 40 Z M 1.89 35.34 L 5.64 35.34 L 5.64 32.53 L 1.89 32.53 Z M 5.64 29.8 L 5.64 26.99 L 1.89 26.99 L 1.89 29.8 Z M 1.89 24.18 L 5.64 24.18 L 5.64 21.41 L 1.89 21.41 Z M 5.64 18.59 L 5.64 15.78 L 1.89 15.78 L 1.89 18.59 Z M 5.64 13.05 L 5.64 10.24 L 1.89 10.24 L 1.89 13.05 Z M 1.89 7.47 L 5.64 7.47 L 5.64 4.66 L 1.89 4.66 Z M 7.49 2.81 L 7.49 18.59 L 31.79 18.59 L 31.79 2.81 Z M 31.79 21.41 L 7.49 21.41 L 7.49 37.23 L 31.79 37.23 Z M 33.6 32.53 L 33.6 35.34 L 37.39 35.34 L 37.39 32.53 Z M 37.39 29.8 L 37.39 26.99 L 33.6 26.99 L 33.6 29.8 Z M 33.6 24.18 L 37.39 24.18 L 37.39 21.41 L 33.6 21.41 Z M 37.39 18.59 L 37.39 15.78 L 33.6 15.78 L 33.6 18.59 Z M 33.6 13.05 L 37.39 13.05 L 37.39 10.24 L 33.6 10.24 Z M 37.39 7.47 L 37.39 4.66 L 33.6 4.66 L 33.6 7.47 Z" fill="#00188d" stroke="none" pointer-events="all"/></g></svg>