<?xml version="1.0" encoding="UTF-8"?>
<!-- Do not edit this file with editors other than draw.io -->
<!DOCTYPE svg PUBLIC "-//W3C//DTD SVG 1.1//EN" "http://www.w3.org/Graphics/SVG/1.1/DTD/svg11.dtd">
<svg xmlns="http://www.w3.org/2000/svg" xmlns:xlink="http://www.w3.org/1999/xlink" version="1.1" width="48px" height="98px" viewBox="-0.5 -0.5 48 98" content="&lt;mxfile host=&quot;app.diagrams.net&quot; modified=&quot;2023-07-28T03:56:51.854Z&quot; agent=&quot;Mozilla/5.0 (X11; Ubuntu; Linux x86_64; rv:109.0) Gecko/20100101 Firefox/115.0&quot; etag=&quot;HEnpXzcC45ISM06-fuT8&quot; version=&quot;21.6.5&quot; type=&quot;github&quot;&gt;&#xA;  &lt;diagram name=&quot;Page-1&quot; id=&quot;ugFps21Dao2Hf610fsU-&quot;&gt;&#xA;    &lt;mxGraphModel dx=&quot;1434&quot; dy=&quot;781&quot; grid=&quot;1&quot; gridSize=&quot;10&quot; guides=&quot;1&quot; tooltips=&quot;1&quot; connect=&quot;1&quot; arrows=&quot;1&quot; fold=&quot;1&quot; page=&quot;1&quot; pageScale=&quot;1&quot; pageWidth=&quot;850&quot; pageHeight=&quot;1100&quot; math=&quot;0&quot; shadow=&quot;0&quot;&gt;&#xA;      &lt;root&gt;&#xA;        &lt;mxCell id=&quot;0&quot; /&gt;&#xA;        &lt;mxCell id=&quot;1&quot; parent=&quot;0&quot; /&gt;&#xA;        &lt;mxCell id=&quot;BpbwQ5jvFUgjZPKOOwyj-1&quot; value=&quot;&quot; style=&quot;sketch=0;aspect=fixed;pointerEvents=1;shadow=0;dashed=0;html=1;strokeColor=none;labelPosition=center;verticalLabelPosition=bottom;verticalAlign=top;align=center;fillColor=#00188D;shape=mxgraph.mscae.general.video&quot; vertex=&quot;1&quot; parent=&quot;1&quot;&gt;&#xA;          &lt;mxGeometry x=&quot;200&quot; y=&quot;320&quot; width=&quot;39&quot; height=&quot;39.8&quot; as=&quot;geometry&quot; /&gt;&#xA;        &lt;/mxCell&gt;&#xA;        &lt;mxCell id=&quot;BpbwQ5jvFUgjZPKOOwyj-3&quot; value=&quot;&quot; style=&quot;shape=image;html=1;verticalAlign=top;verticalLabelPosition=bottom;labelBackgroundColor=#ffffff;imageAspect=0;aspect=fixed;image=https://cdn4.iconfinder.com/data/icons/essentials-73/24/016_-_Speaker-128.png&quot; vertex=&quot;1&quot; parent=&quot;1&quot;&gt;&#xA;          &lt;mxGeometry x=&quot;200&quot; y=&quot;370&quot; width=&quot;48&quot; height=&quot;48&quot; as=&quot;geometry&quot; /&gt;&#xA;        &lt;/mxCell&gt;&#xA;      &lt;/root&gt;&#xA;    &lt;/mxGraphModel&gt;&#xA;  &lt;/diagram&gt;&#xA;&lt;/mxfile&gt;&#xA;" resource="https://app.diagrams.net/#HBDHU%2Fdiagram%2Fmain%2Fstrategies.drawio.svg"><defs/><g><rect x="0" y="0" width="39" height="39.8" fill="none" stroke="none" pointer-events="all"/><path d="M 0 39.8 L 0 0 L 1.88 0 L 1.88 1.84 L 5.61 1.84 L 5.61 0 L 33.43 0 L 33.43 1.84 L 37.2 1.84 L 37.2 0 L 39 0 L 39 39.8 L 37.2 39.8 L 37.2 37.96 L 33.43 37.96 L 33.43 39.8 L 5.61 39.8 L 5.61 37.96 L 1.88 37.96 L 1.88 39.8 Z M 1.88 35.16 L 5.61 35.16 L 5.61 32.37 L 1.88 32.37 Z M 5.61 29.65 L 5.61 26.85 L 1.88 26.85 L 1.88 29.65 Z M 1.88 24.06 L 5.61 24.06 L 5.61 21.3 L 1.88 21.3 Z M 5.61 18.5 L 5.61 15.7 L 1.88 15.7 L 1.88 18.5 Z M 5.61 12.99 L 5.61 10.19 L 1.88 10.19 L 1.88 12.99 Z M 1.88 7.43 L 5.61 7.43 L 5.61 4.64 L 1.88 4.64 Z M 7.46 2.8 L 7.46 18.5 L 31.62 18.5 L 31.62 2.8 Z M 31.62 21.3 L 7.46 21.3 L 7.46 37.04 L 31.62 37.04 Z M 33.43 32.37 L 33.43 35.16 L 37.2 35.16 L 37.2 32.37 Z M 37.2 29.65 L 37.2 26.85 L 33.43 26.85 L 33.43 29.65 Z M 33.43 24.06 L 37.2 24.06 L 37.2 21.3 L 33.43 21.3 Z M 37.2 18.5 L 37.2 15.7 L 33.43 15.7 L 33.43 18.5 Z M 33.43 12.99 L 37.2 12.99 L 37.2 10.19 L 33.43 10.19 Z M 37.2 7.43 L 37.2 4.64 L 33.43 4.64 L 33.43 7.43 Z" fill="#00188d" stroke="none" pointer-events="all"/><image x="-0.5" y="49.5" width="48" height="48" xlink:href="https://cdn4.iconfinder.com/data/icons/essentials-73/24/016_-_Speaker-128.png" preserveAspectRatio="none"/></g></svg>